<?xml version="1.0" encoding="UTF-8" standalone="no"?>
<svg
   xmlns:dc="http://purl.org/dc/elements/1.1/"
   xmlns:cc="http://creativecommons.org/ns#"
   xmlns:rdf="http://www.w3.org/1999/02/22-rdf-syntax-ns#"
   xmlns:svg="http://www.w3.org/2000/svg"
   xmlns="http://www.w3.org/2000/svg"
   xmlns:sodipodi="http://sodipodi.sourceforge.net/DTD/sodipodi-0.dtd"
   xmlns:inkscape="http://www.inkscape.org/namespaces/inkscape"
   preserveAspectRatio="none"
   width="10.270712"
   height="1.8852278"
   id="svg2"
   version="1.1"
   inkscape:version="0.48.4 r9939"
   sodipodi:docname="brush-stroke.svg">
  <metadata
     id="metadata10">
    <rdf:RDF>
      <cc:Work
         rdf:about="">
        <dc:format>image/svg+xml</dc:format>
        <dc:type
           rdf:resource="http://purl.org/dc/dcmitype/StillImage" />
      </cc:Work>
    </rdf:RDF>
  </metadata>
  <defs
     id="defs8" />
  <sodipodi:namedview
     pagecolor="#ffffff"
     bordercolor="#666666"
     borderopacity="1"
     objecttolerance="10"
     gridtolerance="10"
     guidetolerance="10"
     inkscape:pageopacity="0"
     inkscape:pageshadow="2"
     inkscape:window-width="640"
     inkscape:window-height="480"
     id="namedview6"
     showgrid="false"
     fit-margin-top="0"
     fit-margin-left="0"
     fit-margin-right="0"
     fit-margin-bottom="0"
     inkscape:zoom="23.834764"
     inkscape:cx="7.4029176"
     inkscape:cy="0.62894347"
     inkscape:window-x="65"
     inkscape:window-y="24"
     inkscape:window-maximized="0"
     inkscape:current-layer="svg2" />
  <path
     style="fill:#000000"
     d="M 2.1060259,0.0071598 C 1.5607268,0.1121134 0.96427625,0.0019798 0.46665475,0.3016544 0.35660845,0.3369534 -0.15526075,0.51794 0.20545825,0.4758313 0.06150595,0.6068931 0.63164815,0.5205293 0.34761995,0.659721 0.54481835,0.740793 1.2001046,0.741709 1.0173742,1.0339304 0.89252585,1.1298274 0.41131555,1.2305341 0.49634185,1.2217483 c 0.1895199,0.027495 -0.2807399,0.08298 0.018599,0.066352 -0.041329,0.2076549 -0.7583319,0.2633668 -0.4284248,0.3062703 -0.1579872,0.069879 0.3287214,0.040411 0.4558248,0.052294 0.4075768,-0.043277 0.75870635,0.2051848 1.16934015,0.1517785 1.6892511,0.1066763 3.388347,0.1227973 5.0770772,0.00445 0.5920082,-0.08906 1.183813,-0.1955553 1.7834955,-0.2093893 0.2080266,-0.016505 0.308114,-0.1189154 0.041053,-0.057649 C 8.2473485,1.4572467 8.902154,1.2995689 9.0300465,1.3166204 9.235665,1.3561816 9.5768982,1.2760287 9.1717327,1.2676359 8.9843405,1.2255296 9.2338871,1.1553262 9.1267308,1.1579723 9.3489407,1.1615749 9.5168482,1.0392068 9.3963791,0.9899553 9.6949235,0.9058019 9.9968846,0.8173401 10.270712,0.668836 10.091589,0.6831194 9.5860783,0.6224393 10.051543,0.6216448 10.272437,0.6438683 10.299417,0.4259108 10.064111,0.4951902 9.8492635,0.4688927 10.290544,0.3983198 10.005914,0.413895 9.605726,0.3191798 8.9709689,0.4752968 8.7269597,0.2015707 8.2570335,0.2340397 7.785182,0.0721017 7.3008418,0.1361623 5.6305539,0.1635783 3.9972099,0.1696783 2.4136841,0 2.312671,0.015236 2.2057275,0.046628 2.106026,0.00716 z"
     id="path4"
     inkscape:connector-curvature="0" />
</svg>
