<svg xmlns="http://www.w3.org/2000/svg" width="480" height="215.595"><path stroke="white" fill="#00E200" d="M353.103 83.607c19.383 5.156 42.878 13.464 69.268 26.821l6.038-3.071c7.54-2.978 5.927-9.672 5.716-10.426l-.067-.414-2.047-40.19c-.142-.421-.308-.824-.468-1.228-4.251 9.042-22.867 17.059-55.398 23.84l-23.042 4.668zm-332.376-32.977c2.188 3.244 9.956 8.55 36.679 11.518 31.033-11.53 85.187-25.022 168.673-25.022 96.311-.001 148.399 16.16 175.368 30.021 3.318-1.003 6.677-2.053 10.064-3.161 4.332-1.4 15.733-6.373 16.533-12.526.058-.444.058-.893.003-1.348l-.133-.208-.173-.208c-2.921-3.861-15.095-17.394-49.171-29.368-38.092-13.384-89.389-20.171-152.466-20.171-131.616 0-190.833 33.728-200.724 40.018-3.131 3.091-5.717 6.815-4.768 10.164l.115.291zm-4.223 47.673c-.093.767-.688 7.611 7.224 9.547l.407.145c.134.064 13.48 6.307 28.538 8.613 1.381.213 3.48.426 6.142.646 40.41-24.188 75.072-32.972 98.502-35.918-3.035-1.935-5.877-3.84-8.421-5.548-3.35-2.248-6.762-4.536-9.377-5.998-18.688-.161-58.719-1.24-60.792-1.296-37.518-1.81-57.848-7.385-62.132-17.025-.351 1.39-.566 2.885-.566 4.516l.491 42.188-.016.13zm209.778-4.338l-20.336.495c-.435.039-2.516.205-5.651.205-7.111 0-20.712-.885-31.898-6.809-1.927-1.022-3.82-2.094-5.664-3.186-33.037 3.241-93.646 18.619-161.936 81.338l46.878 35.098c5.833-5.499 30.36-28.093 62.675-50.418 11.31-7.815 24.377-16.12 38.418-23.744l.833-.618c1.572-1.163 36.428-26.601 76.598-30.233.034-.726.063-1.436.083-2.128zm-88.804-29.387c8.328 4.223 7.158 3.539 13.825 8.014 5.377 3.612 12.066 8.104 19.127 11.845 10.361 5.487 23.16 6.308 29.865 6.308 3.239 0 5.3-.189 5.32-.192l.153-.01 20.563-.501c-.074-11.897-2.256-18.551-4.761-22.262-15.494-2.767-42.433-8.172-42.743-8.234-6.226-1.06-12.059-1.602-17.266-1.602-13.561 0-32.412 2.412-24.083 6.634zm87.204 47.362l.019-.264c.583-4.235.993-8.091 1.256-11.621-32.424 3.188-61.885 21.322-70.946 27.387 17.353 7.001 30.47 8.998 49.182 9.898 20.326-5.459 20.494-24.549 20.489-25.4zm56.913-32.977c8.043 18.004 5.938 34.579 4.522 41.312 76.345 5.611 147.199 55.897 158.257 64.075l35.626-34.051c-98.863-71.072-176.301-72.638-198.405-71.336zm-60.324-24.52c-.031-.015-3.854-1.895-9.859-1.895-5.89 0-11.769 1.724-17.529 5.132l13.263 2.149c1.005-.356 3.075-.957 5.589-.957 4.13 0 7.808 1.604 10.627 4.637 7.029 7.554 8.868 23.896 5.468 48.568-.056 2.051-1.21 23.49-24.207 29.229 1.15 1.113 2.241 3.395 5.475 3.395 2.978 0 6.316-.42 10.357-2.315l33.786-12.149 27.363-8.875s4.881-23.272-4.837-43.021l-55.496-23.898z"/></svg>
