<?xml version="1.0" encoding="UTF-8" standalone="no"?>
<svg xmlns:rdf="http://www.w3.org/1999/02/22-rdf-syntax-ns#" xmlns="http://www.w3.org/2000/svg" height="100" width="15.01" version="1.1" xmlns:cc="http://creativecommons.org/ns#" xmlns:xlink="http://www.w3.org/1999/xlink" preserveAspectRatio="none" xmlns:dc="http://purl.org/dc/elements/1.1/">
 <defs>
  <linearGradient id="linearGradient6293" y2="129.7" gradientUnits="userSpaceOnUse" x2="167.5" gradientTransform="matrix(1.5656901,0,0,1.068986,217.8296,307.00799)" y1="129.7" x1="166.8">
   <stop style="stop-color:#7a532b;" offset="0"/>
   <stop style="stop-color:#7a532b;stop-opacity:0;" offset="1"/>
  </linearGradient>
 </defs>
 <metadata>
  <rdf:RDF>
   <cc:Work rdf:about="">
    <dc:format>image/svg+xml</dc:format>
    <dc:type rdf:resource="http://purl.org/dc/dcmitype/StillImage"/>
    <dc:title/>
   </cc:Work>
  </rdf:RDF>
 </metadata>
 <g transform="translate(-367.18916,-491.60527)">
  <g style="stroke-dasharray:none;stroke:#5a3d1f;stroke-width:0.63035131;stroke-miterlimit:4;" transform="matrix(0,0.40164798,-0.41698087,0,560.05603,392.59382)">
   <path style="stroke:#5a3d1f;stroke-miterlimit:4;stroke-dasharray:none;stroke-width:0.82336503;fill:#b06d46;" d="m175,129.7c0,11.6-1.791,21-4,21s-4-9.402-4-21,1.791-21,4-21,4,9.402,4,21z" transform="matrix(-0.79698653,0,0,0.73540984,628.27743,350.90917)"/>
   <g style="stroke-dasharray:none;stroke:#5a3d1f;stroke-width:0.37622485;stroke-miterlimit:4;" transform="matrix(1.1546954,0,0,2.4311004,-74.129445,-637.51909)">
    <path style="stroke:#5a3d1f;stroke-miterlimit:4;stroke-dasharray:none;stroke-width:0.37622485;fill:#b06d46;" d="m479.1,449.1,0-6.874,9.411,0c0.7807,2.437,0.7807,4.437,0,6.874h-9.411z"/>
    <path style="stroke:#5a3d1f;stroke-miterlimit:4;stroke-dasharray:none;stroke-width:0.37622485;fill:url(#linearGradient6293);" d="m479,442.3,1.015,0,0,6.821-1.015,0c0.1218-2.232,0.1624-4.52,0-6.821z"/>
   </g>
  </g>
  <g style="stroke-dasharray:none;stroke:#5a3d1f;stroke-width:0.63035131;stroke-miterlimit:4;" transform="matrix(0,-0.40164798,-0.41698087,0,559.99577,690.62364)">
   <path style="stroke:#5a3d1f;stroke-miterlimit:4;stroke-dasharray:none;stroke-width:0.82336503;fill:#b06d46;" d="m175,129.7c0,11.6-1.791,21-4,21s-4-9.402-4-21,1.791-21,4-21,4,9.402,4,21z" transform="matrix(-0.79698653,0,0,0.73540984,628.27743,350.90917)"/>
   <g style="stroke-dasharray:none;stroke:#5a3d1f;stroke-width:0.37622485;stroke-miterlimit:4;" transform="matrix(1.1546954,0,0,2.4311004,-74.129445,-637.51909)">
    <path style="stroke:#5a3d1f;stroke-miterlimit:4;stroke-dasharray:none;stroke-width:0.37622485;fill:#b06d46;" d="m479.1,449.1,0-6.874,9.411,0c0.7807,2.437,0.7807,4.437,0,6.874h-9.411z"/>
    <path style="stroke:#5a3d1f;stroke-miterlimit:4;stroke-dasharray:none;stroke-width:0.37622485;fill:url(#linearGradient6295);" d="m479,442.3,1.015,0,0,6.821-1.015,0c0.1218-2.232,0.1624-4.52,0-6.821z"/>
   </g>
  </g>
  <path style="stroke-linejoin:round;stroke:#000000;stroke-linecap:round;stroke-miterlimit:4;stroke-dasharray:none;stroke-width:0.3;fill:#ffffff;" d="m367.3,497.7c0-0.4583,4.983-0.6369,7.068-0.6369,3.752,0,7.592,0.3809,7.592,1.297-0.4169,6.874,0.417,78.62,0,87.79,0.3256,1.631-5.09,1.196-7.592,1.196-4.169,0-7.088-1.375-7.088-2.75,0-0.7755,0.0198-82.31,0.0198-86.9z"/>
 </g>
</svg>
