<svg
xmlns="http://www.w3.org/2000/svg"
height="86.75"
width="187.7"
version="1.1"
>
<path
fill="#7c961d"
d="m87.73,86.75h-40,20c27.07-8.902,52.93-21.1,80-30,0.2491-7.734,4.944-14.49,10-20,8.061,7.988,21.33,9.25,27.44,19.43,4.223,7.487,3.553,18.52-4.067,23.62-10.27,6.888-23.24,6.881-35.16,6.952h-58.22z"
/>
<path
fill="#9f6c4a"
d="M82.01,62.72c-21.16,1.51-43.06,3.61-63.66-2.76-6.89-2.14-15.39-6.87-14.85-15.22,0.749-10.89,10.47-18.05,18.41-24.15,23.64-16.69,53.9-20.09,82.09-17.5,14.4,1.112,29.05,2.314,42.76,7.13,7.338,2.347,11.95,10.09,9.714,17.57-2.093,11.19-12.38,17.95-21.97,22.44-16.4,7.653-34.59,10.63-52.45,12.49zm-27.5,23.09c17.7,1.407,35.69,0.9347,53.13-2.52,13.52-2.757,27.03-8.203,36.34-18.77,8.4-8.032,15.01-19.08,14.03-31.09,0.7384-6.812,2.873-14.99-2.935-20.32-6-5.857-15-6.882-22.8-9.008-6.9-1.432-14-2.218-21-2.355-8-3.089-16.83-1.264-25.21-1.539-7.75,0.1716-15.51,0.4304-23.19,1.465-5.47,2.482-11.86,2.261-17.37,4.853-17.76,6.094-34.73,17.04-44.54,33.39-3.799,7.935,3.973,13.62,6.234,20.45,4.008,11.69,16.2,17.58,27.17,21.15,6.592,2.044,13.4,3.27,20.22,4.29z"
/>
</svg>
